<?xml version="1.0" encoding="UTF-8"?>
<svg id="Layer_1" data-name="Layer 1" xmlns="http://www.w3.org/2000/svg" viewBox="0 0 800 800">
  <defs>
    <style>
      .cls-1 {
        fill: none;
      }

      .cls-2 {
        fill: #1e1d17;
      }
    </style>
  </defs>
  <g>
    <path class="cls-2" d="M205.83,431.27c10.56-.17,21.63-5.7,21.63-18.78,0-19.62-28.67-25.82-29-40.41-.84,0-8.38.67-17.94.67-6.2,0-13.41-.17-19.95-1.34,0,0,14.42,43.26,0,117.2,0,0,9.22-1.68,20.12-1.68,5.87,0,12.24.5,17.94,2.01,0,0-.5-2.35-1.01-6.54,2.18,4.02,5.7,7.04,11.07,7.04,12.58,0,31.35-1.51,31.35-22.63s-20.29-29.51-34.2-35.54ZM192.75,417.19c0-13.91,1.18-27.66,4.02-39.06,1.68,6.54,12.91,12.74,12.91,36.38,0,4.02.17,12.07-10.56,12.07-5.53,0-6.54-5.7-6.37-9.39ZM205.83,482.07c-5.2,0-9.05-5.03-9.72-11.4-.34-2.01-2.85-29.68-3.35-41.08,5.7,15.59,18.44,10.9,18.44,42.75,0,4.7-.67,9.72-5.37,9.72Z"/>
    <path class="cls-2" d="M299.57,462.3c-11.46,0-23.65-7.1-25.11-22.74,19.65-.36,45.12-4.18,45.12-28.75,0-17.28-16.92-20.37-34.38-20.37-22.74,0-41.12,22.56-41.12,50.39s15.28,50.21,38.02,50.21,37.48-13.46,37.84-40.93c-3.09,8-11.64,12.19-20.38,12.19ZM284.28,396.98c4.73,0,6.73,3.82,6.73,9.46,0,10.37-1.82,23.29-16.56,28.02.18-16.55,2-37.48,9.82-37.48Z"/>
    <path class="cls-2" d="M393.33,404.6c-1.45-3.09-1.45-6,0-9.1-5.09.36-14.73.55-24.92.55.13-5.95.35-12.01.9-19.24-4.76-2.17-8.34-5.25-10.71-9.27-1.86.08-3.87.13-6.01.13-5.82,0-12.55-.36-19.29-1.45,0,0,5.64,6.91,6.91,29.65-7.28-.18-12.19-.18-12.19-.18,2,3.64-2.18,8.73-2.18,8.73,4.55-.73,9.46-1.27,14.55-1.64,0,10.01-.55,22.38-2.73,37.66-1.09,7.82-13.1,54.21,30.38,54.21,20.19,0,23.83-17.65,23.83-33.11-1.64,3.64-5.28,8-9.28,8-6.73,0-14.37-12.01-14.37-58.22v-8.55c14.37.55,25.11,1.82,25.11,1.82Z"/>
    <path class="cls-2" d="M435.9,396.05c.1-4.66.26-9.4.58-14.7l-5.47-1.45c-4.02-1.06-8.51-1.6-13.35-1.6-5.31,0-9.8.66-12.04,1.05.91,4.23,1.69,9.64,2.08,16.51-7.28-.18-12.19-.18-12.19-.18,2,3.64-2.18,8.73-2.18,8.73,4.55-.73,9.46-1.27,14.55-1.64,0,10.01-.55,22.38-2.73,37.66-1.09,7.82-13.1,54.21,30.38,54.21,20.19,0,23.83-17.65,23.83-33.11-1.64,3.64-5.28,8-9.28,8-6.73,0-14.37-12.01-14.37-58.22v-8.55c14.37.55,25.11,1.82,25.11,1.82-1.46-3.09-1.46-6,0-9.1-5.1.36-14.74.55-24.93.55Z"/>
    <path class="cls-2" d="M522.7,466.27c-11.46,0-23.65-7.1-25.1-22.74,19.65-.36,45.12-4.18,45.12-28.75,0-17.28-16.92-20.37-34.38-20.37-22.74,0-41.12,22.56-41.12,50.39s15.28,50.21,38.02,50.21,37.48-13.46,37.84-40.93c-3.09,8-11.64,12.19-20.38,12.19ZM507.42,400.96c4.73,0,6.73,3.82,6.73,9.46,0,10.37-1.82,23.29-16.55,28.02.18-16.55,2-37.48,9.82-37.48Z"/>
    <path class="cls-2" d="M610.26,391.87c-6.19,0-17.1,1.82-23.1,11.82.15-2.43.54-9.01.87-13.02-7.21,5.32-16.47,8.2-27.5,8.2-2.47,0-4.88-.23-7.22-.67,3.67,9.34,9.58,35.62-2.18,95.91,0,0,10.01-1.82,21.83-1.82,6.37,0,13.28.55,19.46,2.18,0,0-6.37-25.65-6.55-55.31,0-30.2,9.1-38.02,14.01-38.02,7.82,0,6.73,18.92-3.46,18.92,0,11.83,12.55,16.92,20.74,16.92,4.91,0,18.74-4,18.74-22.01,0-13.64-12.01-23.11-25.65-23.11Z"/>
    <path class="cls-2" d="M237.42,392.09c25.29,0,35.29-12.37,39.3-41.48-2.37,6.55-11.46,12.19-21.83,12.19-14.37,0-30.93-11.1-33.84-46.39-3.09-35.48,10.19-43.66,18.92-43.66,5.28,0,11.28,12.55,1.46,40.39l32.2-17.83c0-17.46-13.1-30.93-32.56-30.93-25.47,0-46.03,28.74-46.03,63.86s16.92,63.86,42.39,63.86Z"/>
    <path class="cls-2" d="M396.42,294.94c3.06,0,5.65,5.2,5.65,12.84-.46,26.13-40.04,17.88-40.04,45.23,0,19.26,17.12,20.63,28.58,20.63,6.72,0,10.09-5.04,11.92-11v10.24s6.57-1.53,15.13-1.53c4.74,0,9.93.46,15.13,1.83,0,0-3.52-21.24-4.89-46.3-.76-14.21-.61-36.98-26.13-36.98-10.54,0-21.7,10.09-33.77,19.1l13.14,14.67c6.72-16.2,11-28.73,15.28-28.73ZM402.69,350.72c-.15,8.86-3.36,16.2-9.47,16.2-4.28,0-4.89-4.59-4.89-8.86,0-16.2,10.85-24.45,14.36-39.28.31,6.88.15,28.58,0,31.94Z"/>
    <path class="cls-2" d="M459.89,391.36c4.88-1.02,9.76-1.42,14.64-1.42s9.35.41,13.83,1.42c.2-1.42,37.61-110.6,37.61-110.6-7.52,1.83-15.25,2.44-21.96,2.44-11.99,0-20.94-1.83-20.94-1.83-.41,27.04-4.27,75.22-5.69,91.08-4.27-15.86-5.69-64.04-8.13-91.08,0,0-7.52,1.83-18.3,1.83-6.3,0-13.42-.61-21.14-2.44,0,0,8.54,28.46,18.09,60.99,4.68,16.47,7.93,28.06,12,49.61Z"/>
    <path class="cls-2" d="M590.47,330.15c.73-.67,1.43-1.38,2.07-2.14-.36.33-.73.64-1.06.99-.35.37-.67.77-1,1.15Z"/>
    <path class="cls-2" d="M324.56,316.96c0,11.83,12.55,16.92,20.74,16.92,4.63,0,17.16-3.56,18.59-19.04.09-.95.15-1.93.15-2.98,0-2.71-.49-5.24-1.35-7.58-3.49-9.44-13.36-15.53-24.3-15.53-6.19,0-17.1,1.82-23.1,11.83.18-2.91.55-6,.91-9.28,0,0-7.09,1.09-17.1,1.09-5.82,0-12.73-.36-19.83-1.64,0,0,15.18,19.51.61,96.98,5.4-2.32,12.99-2.79,20.98-.87.33.08.65.14.97.23,1.14.3,2.23.65,3.31,1.02,7.12,2.47,12.76,6.49,15.88,10.91-1.81-9.65-6.85-38.65-7-62.97,0-30.2,9.1-38.02,14.01-38.02,7.82,0,6.73,18.92-3.46,18.92Z"/>
    <path class="cls-2" d="M597.13,303.76c.03-.08.05-.12.03-.21-.08-.04-.13-.04-.22-.04-.01.09-.03.11.01.19.06.03.11.05.18.05Z"/>
    <path class="cls-2" d="M596.2,313.75c-.1-.02-.16-.03-.26,0-.08.07-.12.14-.16.23.03,0,.05,0,.08-.01.15-.03.25-.1.34-.22Z"/>
    <path class="cls-2" d="M592.72,303.82c-.06-.06-.1-.08-.18-.1-.03.09-.05.13-.03.23.08.07.1.07.2.09.03-.1.04-.13.02-.23Z"/>
    <path class="cls-2" d="M606.02,297.36s.02,0,.03,0c.05-.08.1-.15.09-.24-.04-.07-.08-.09-.15-.12-.05.08-.1.14-.11.25.05.08.05.08.14.11Z"/>
    <path class="cls-2" d="M587.91,308.62c.05-.07.08-.12.06-.21-.01-.08-.07-.14-.13-.17-.05-.03-.11-.03-.17-.03-.05.1-.07.13-.06.25.04.07.08.12.16.14.05.01.1.02.14.03Z"/>
    <path class="cls-2" d="M592.72,298.45c.05-.1.07-.15.06-.26-.04-.07-.08-.11-.15-.14-.04-.01-.08-.01-.11-.02-.06.09-.08.14-.09.24.06.05.12.11.18.16.04,0,.08,0,.12.01Z"/>
    <path class="cls-2" d="M592.55,298.43s.04,0,.06,0c-.06-.05-.12-.11-.18-.16,0,0,0,.01,0,.02.03.08.05.11.13.14Z"/>
    <path class="cls-2" d="M586.67,309.76s-.11-.01-.16-.01c-.05.09-.09.16-.1.27.04.07.05.1.13.12.05.01.12,0,.17.01.05-.09.09-.15.09-.25-.04-.08-.04-.11-.13-.14Z"/>
    <path class="cls-2" d="M591.54,316.79s.12.02.17.03c.06-.1.11-.2.07-.33-.02-.05-.05-.07-.1-.1-.05,0-.11-.02-.16-.02-.06.1-.09.16-.11.27.03.08.04.11.12.15Z"/>
    <path class="cls-2" d="M596.13,314.21c.06-.06.1-.1.12-.19.03-.11,0-.18-.06-.28-.08.12-.18.2-.34.22-.04,0-.05,0-.08.01.04.11.06.17.16.25.09.02.11.02.2-.01Z"/>
    <path class="cls-2" d="M583.25,306.55c-.12.05-.21.09-.27.22-.03.08-.03.15.02.22.06.11.16.13.28.16.12-.06.21-.1.26-.24.02-.08.02-.15-.02-.23-.06-.1-.15-.12-.26-.14Z"/>
    <path class="cls-2" d="M609.35,310.97c-.11.07-.22.14-.25.28-.02.07-.01.1,0,.16.05.07.09.11.18.13.06.01.13,0,.18,0,.11-.07.22-.14.25-.28.02-.07,0-.1,0-.17-.05-.07-.1-.12-.18-.13-.05,0-.11,0-.17,0Z"/>
    <path class="cls-2" d="M604.62,292.68c.11-.07.24-.14.28-.29.02-.07.01-.1,0-.17-.05-.07-.09-.11-.18-.13-.05-.01-.11-.01-.16-.01-.13.09-.26.22-.27.39,0,.09,0,.11.06.18.1.05.17.04.28.02Z"/>
    <path class="cls-2" d="M597.56,321.06c-.02.1,0,.18.05.26.05.07.15.13.24.14.05,0,.06,0,.11,0,.11-.08.2-.15.22-.29.01-.08,0-.17-.06-.23-.09-.1-.21-.12-.34-.13-.1.06-.18.12-.21.24Z"/>
    <path class="cls-2" d="M601.6,303.11s.04.01.08.02c.13-.09.26-.19.28-.36,0-.08-.03-.16-.08-.21-.08-.07-.17-.08-.26-.09-.12.05-.22.1-.28.22-.03.07-.03.15,0,.22.05.12.15.17.27.2Z"/>
    <path class="cls-2" d="M597.3,305.87s.08.01.12,0c.12-.09.26-.2.26-.37,0-.09-.03-.15-.1-.21-.08-.08-.2-.1-.3-.12-.1.06-.16.12-.21.21.05.16.12.29.17.45.02,0,.03.03.06.04Z"/>
    <path class="cls-2" d="M597.05,305.71c.04.08.12.1.19.13-.05-.16-.12-.3-.17-.45-.01.02-.03.04-.04.07-.02.08-.02.17.02.25Z"/>
    <path class="cls-2" d="M587.94,300.67c.12-.1.24-.2.26-.37,0-.07,0-.15-.05-.21-.08-.11-.2-.13-.33-.14,0,0-.02,0-.03,0-.12.11-.22.21-.24.37,0,.07,0,.15.06.21.09.11.21.12.34.13Z"/>
    <path class="cls-2" d="M607.44,287.6s.03,0,.05,0c.13-.09.26-.21.28-.38.01-.09,0-.16-.05-.23-.07-.09-.2-.14-.31-.16-.15.1-.23.16-.27.34-.02.1-.01.19.04.28.06.09.16.14.27.15Z"/>
    <path class="cls-2" d="M588.6,310.06c-.03.1-.04.21.03.3.06.09.16.15.26.16.04,0,.08,0,.12,0,.11-.07.23-.15.26-.29.02-.09,0-.16-.05-.23-.08-.12-.22-.16-.34-.19-.11.06-.23.11-.27.25Z"/>
    <path class="cls-2" d="M578.69,286.13s0,.03.01.05c0,.02,0,.03.02.04s.01.03.02.04.02.03.03.04c.08.12.23.21.37.23.06.01.13.01.2.01.16-.09.27-.16.33-.34,0-.02.01-.03.01-.05s0-.03,0-.05c0-.02,0-.03,0-.05,0-.02,0-.03,0-.05,0-.02,0-.03,0-.05,0-.02,0-.03-.01-.05,0-.02-.01-.03-.02-.05,0-.02-.02-.03-.02-.05-.06-.11-.17-.2-.3-.23-.09-.02-.19,0-.28,0-.16.1-.29.18-.34.37,0,.02,0,.03,0,.05,0,.02,0,.03,0,.05,0,.02,0,.03,0,.05,0,.02,0,.03,0,.05ZM579.16,285.73s.03,0,.04,0c.12.02.21.05.27.16.05.09.05.19.01.29-.05.12-.15.16-.26.21-.13-.02-.25-.04-.32-.16-.04-.07-.04-.15-.02-.22.05-.15.15-.21.28-.28Z"/>
    <path class="cls-2" d="M579.22,286.39c.11-.05.21-.09.26-.21.04-.09.04-.2-.01-.29-.07-.11-.16-.14-.27-.16-.01,0-.03,0-.04,0-.12.07-.23.14-.28.28-.02.07-.02.15.02.22.07.12.2.14.32.16Z"/>
    <path class="cls-2" d="M602.69,319.11c.06-.15.06-.33-.02-.47-.07-.13-.19-.24-.34-.28-.09-.03-.19-.02-.28-.02-.2.09-.35.18-.44.39-.07.15-.08.33-.01.48,0,.02.02.03.02.05,0,.02.02.03.03.05.01.01.02.03.03.04.01.01.03.03.04.04.01.01.03.02.04.03.01.01.03.02.05.03.02,0,.03.02.05.02.02,0,.03.01.05.02.1.03.21.04.32.04.21-.09.36-.2.45-.41ZM601.86,319.18c-.07-.08-.09-.21-.07-.31.02-.17.1-.24.23-.34.13-.02.28-.03.39.05.06.04.09.13.09.2-.01.18-.3.24-.42.34.18.04.26-.02.41-.11h.03s-.03.07-.07.1c-.1.09-.23.19-.37.18-.09,0-.16-.05-.22-.12Z"/>
    <path class="cls-2" d="M602.52,319h-.03c-.15.1-.23.16-.41.12.12-.1.41-.16.42-.34,0-.08-.03-.16-.09-.2-.11-.08-.26-.07-.39-.05-.13.1-.21.17-.23.34-.01.1,0,.23.07.31.06.07.12.11.22.12.14.01.28-.09.37-.18.03-.03.05-.07.07-.11Z"/>
    <path class="cls-2" d="M596.87,289.6c.12.06.25.07.39.08.21-.05.4-.14.52-.33.01-.02.02-.04.03-.05,0-.02.02-.04.03-.06,0-.02.01-.04.02-.06,0-.02,0-.04.01-.06,0-.02,0-.04,0-.06s0-.04,0-.06c0-.02,0-.04,0-.06,0-.02,0-.04-.01-.06-.05-.19-.18-.34-.35-.43-.09-.05-.2-.07-.3-.08-.25.06-.46.18-.59.4-.09.14-.12.32-.07.49.05.16.18.29.33.36ZM597.14,288.57s.09,0,.13,0c.1.02.21.09.26.19.06.1.04.21,0,.32-.06.19-.21.3-.39.39-.05-.01-.1-.02-.15-.05-.02,0-.03-.02-.04-.03-.08-.05-.15-.09-.2-.17-.04-.07-.04-.14-.03-.22.05-.21.24-.33.4-.44Z"/>
    <path class="cls-2" d="M596.96,289.4s.03.02.04.03c.05.03.1.04.15.05.18-.09.33-.2.39-.39.04-.11.05-.22,0-.32-.05-.09-.16-.16-.26-.19-.04,0-.09,0-.13,0-.17.11-.36.24-.4.44-.02.07-.01.15.03.22.05.08.12.13.2.17Z"/>
    <path class="cls-2" d="M576.47,288.71c.18.08.34.07.53.06.21-.07.42-.17.53-.37,0-.02.02-.03.02-.05,0-.02.01-.03.02-.05,0-.02,0-.03.01-.05,0-.02,0-.03,0-.05s0-.03,0-.05,0-.03,0-.05,0-.03-.01-.05c0-.02,0-.03-.02-.05-.07-.18-.23-.31-.4-.38-.16-.07-.32-.07-.5-.06-.22.06-.43.12-.55.33-.07.13-.08.27-.03.41.06.19.22.33.4.41ZM576.65,287.76c.13,0,.26-.02.39.02.13.04.3.15.36.28.03.08.04.15,0,.23-.07.15-.24.23-.38.29-.14,0-.27,0-.41,0-.13-.07-.26-.14-.33-.27-.04-.08-.06-.19-.02-.27.07-.15.24-.22.39-.27Z"/>
    <path class="cls-2" d="M576.6,288.57c.13,0,.27,0,.41,0,.14-.06.31-.14.38-.29.04-.08.03-.15,0-.23-.05-.13-.23-.24-.36-.28-.13-.04-.26-.03-.39-.02-.15.05-.32.12-.39.27-.04.09-.02.19.02.27.06.13.2.21.33.27Z"/>
    <path class="cls-2" d="M599.7,290.27c.33-.1.65-.26.83-.57.09-.16.13-.35.08-.53-.04-.14-.13-.24-.27-.3-.15-.07-.3-.08-.47-.08-.33.06-.62.17-.82.47-.12.18-.18.41-.13.63.03.14.12.26.25.33.17.09.34.09.53.07ZM599.24,289.41c.17-.24.42-.33.7-.37.07,0,.16,0,.22.04.08.04.14.15.17.23.03.08.02.16-.02.24-.13.26-.54.43-.81.52-.01,0-.02,0-.04,0-.01,0-.02,0-.04,0-.01,0-.02,0-.04,0-.01,0-.02,0-.04,0s-.02,0-.04,0c-.01,0-.02,0-.03-.01s-.02-.01-.03-.02c-.01,0-.02-.01-.03-.02-.06-.04-.09-.1-.11-.17-.03-.15.03-.31.12-.43Z"/>
    <path class="cls-2" d="M599.26,290.03s.02.01.03.02.02,0,.03.01c.01,0,.02,0,.04,0s.02,0,.04,0c.01,0,.02,0,.04,0,.01,0,.02,0,.04,0,.01,0,.02,0,.04,0,.26-.09.68-.25.81-.52.04-.08.05-.16.02-.24-.03-.08-.1-.19-.17-.23-.06-.03-.15-.04-.22-.04-.28.04-.53.13-.7.37-.09.12-.15.28-.12.43.01.07.04.13.11.17.01,0,.02.01.03.02Z"/>
    <path class="cls-2" d="M592.78,310.01s.01.05.02.08c0,.03.02.05.03.08.01.03.02.05.04.08s.03.05.04.07c.02.02.03.05.05.07.02.02.04.04.06.06s.04.04.06.06c.02.02.04.03.07.05.17.11.36.15.57.15.32-.08.59-.19.76-.49.01-.02.03-.05.04-.07.01-.02.02-.05.03-.08,0-.03.01-.05.02-.08,0-.03,0-.05.01-.08,0-.03,0-.05,0-.08,0-.03,0-.05,0-.08,0-.03,0-.05-.01-.08,0-.03-.01-.05-.02-.08-.07-.21-.22-.38-.42-.48-.16-.08-.34-.11-.52-.11-.29.05-.52.13-.68.38-.02.02-.03.05-.04.07-.01.02-.03.05-.04.07-.01.03-.02.05-.03.08,0,.03-.02.05-.02.08,0,.03,0,.05-.01.08,0,.03,0,.06,0,.08s0,.06,0,.08c0,.03,0,.05.01.08ZM593.25,309.31c.21-.14.45-.11.68-.07.16.1.31.25.36.44.04.14.02.3-.06.42-.04.05-.08.1-.13.15-.15.11-.32.19-.51.18-.17-.01-.31-.1-.42-.23-.12-.15-.17-.34-.14-.52.02-.15.1-.28.22-.36Z"/>
    <path class="cls-2" d="M593.58,310.43c.19.02.36-.07.51-.18l-.1-.04c-.08.08-.15.1-.25.14-.13-.37.08-.75.19-1.1-.23-.04-.48-.07-.68.07-.12.08-.2.22-.22.36-.03.18.02.38.14.52.1.13.25.22.42.23Z"/>
    <path class="cls-2" d="M593.74,310.35c.01-.2.1-.5.22-.65.05-.06.02-.05.09-.05.08.16-.02.41-.06.57l.1.04s.09-.1.13-.15c.08-.12.1-.29.06-.42-.05-.19-.19-.34-.36-.44-.11.35-.32.74-.19,1.1Z"/>
    <path class="cls-2" d="M594.05,309.64c-.07,0-.05,0-.09.05-.12.15-.21.45-.22.65.11-.03.17-.06.25-.14.05-.16.14-.41.06-.57Z"/>
    <path class="cls-2" d="M609.09,306.31c.17.07.34.07.52.05.26-.09.46-.26.58-.51.01-.03.02-.06.03-.09.01-.03.02-.06.03-.09,0-.03.01-.06.02-.09,0-.03,0-.06,0-.09s0-.06,0-.09c0-.03,0-.06-.01-.09s-.01-.06-.02-.09c0-.03-.02-.06-.03-.09s-.02-.06-.04-.09c-.01-.03-.03-.06-.05-.08s-.04-.05-.06-.08c-.02-.02-.04-.05-.06-.07s-.05-.04-.07-.07c-.02-.02-.05-.04-.08-.06-.03-.02-.05-.04-.08-.05s-.06-.03-.09-.04c-.19-.08-.36-.08-.56-.07-.26.1-.47.23-.59.49-.1.22-.1.49-.01.72.1.26.3.48.56.59ZM609.02,304.91c.24-.16.42-.16.69-.11.11.06.14.1.21.2.02.04.05.08.08.11.05.24-.02.49-.16.69-.11.16-.26.28-.46.31-.15.02-.31-.05-.42-.15-.01-.01-.02-.02-.04-.03-.03-.03-.03-.03-.06-.06-.11-.15-.18-.36-.15-.54.03-.17.15-.32.3-.41Z"/>
    <path class="cls-2" d="M609.11,305.91c-.07,0-.12,0-.19.02.01.01.02.02.04.03.11.1.26.17.42.15.19-.02.35-.15.46-.31.14-.2.2-.45.16-.69-.08.25-.13.61-.38.75-.16.08-.33.07-.5.05Z"/>
    <path class="cls-2" d="M609.46,305.73s-.02.04-.04.06c-.1.03-.22.06-.31.12.17.02.34.04.5-.05.25-.14.3-.5.38-.75-.03-.03-.05-.07-.08-.11-.06-.1-.1-.14-.21-.2.08.3-.11.67-.25.93Z"/>
    <path class="cls-2" d="M608.92,305.93c.07-.02.12-.02.19-.02.09-.06.21-.08.31-.12.01-.02.02-.04.04-.06.14-.26.33-.64.25-.93-.28-.05-.45-.06-.69.11-.14.1-.26.24-.3.41-.04.19.04.39.15.54.03.04.03.04.06.06Z"/>
    <path class="cls-2" d="M587.89,313.11c-.09-.05-.17-.06-.26-.05-.27.07-.52.17-.67.43-.13.21-.15.46-.09.7,0,.03.02.07.03.1s.03.07.04.1c.02.03.03.06.05.09.02.03.04.06.06.09.02.03.05.06.07.08.02.03.05.05.08.07.03.02.06.05.08.07.03.02.06.04.09.06.19.11.41.15.63.15.25-.03.53-.07.69-.28.08-.1.11-.23.09-.36-.04-.28-.65-1.09-.9-1.24ZM588.47,314.47c-.07.13-.22.18-.34.24-.21-.03-.34-.04-.49-.2-.04-.06-.08-.1-.14-.14v.03c.05.11.12.18.21.27l.03.03c-.06.03-.12,0-.19-.02-.19-.06-.34-.2-.41-.38-.01-.03-.02-.05-.03-.08s-.01-.05-.02-.08c0-.03,0-.05-.01-.08,0-.03,0-.05,0-.08s0-.05,0-.08c0-.03,0-.05.02-.08s.01-.05.02-.08c0-.03.02-.05.03-.08.1-.21.26-.28.47-.35.03,0,.05,0,.08.01.15.05.67.68.74.84.04.09.07.22.02.32Z"/>
    <path class="cls-2" d="M587.7,313.31s-.05-.01-.08-.01c-.21.07-.37.14-.47.35-.01.02-.02.05-.03.08,0,.03-.02.05-.02.08s-.01.05-.02.08c0,.03,0,.05,0,.08s0,.05,0,.08c0,.03,0,.05.01.08,0,.03.01.05.02.08s.02.05.03.08c.08.18.22.32.41.38.07.02.13.05.19.02l-.03-.03c-.09-.08-.16-.15-.22-.27v-.03c.06.05.1.09.14.14.15.17.28.18.49.2.12-.06.28-.11.34-.24.05-.1.03-.22-.02-.32-.08-.17-.6-.79-.74-.84Z"/>
    <path class="cls-2" d="M587.77,306.12c.2.03.39-.08.56-.17.21-.15.51-.34.55-.62.06-.42-.26-.94-.51-1.26-.17-.21-.45-.5-.73-.52-.05,0-.1,0-.15,0-.27.21-.39.45-.43.79-.06.46.04,1.18.32,1.56.1.13.22.21.38.24ZM588.3,305.62c-.13.1-.37.26-.55.22-.05,0-.05-.03-.08-.07,0-.06,0-.09.02-.15l.14-.09s.03,0,.05,0c.28.02.55-.29.75-.46-.03.26-.11.38-.32.54ZM587.28,304.18c.03-.14.09-.33.23-.4.06-.03.13-.03.2,0,.24.08.46.43.58.65.1.16.18.32.26.49-.25.22-.72.47-.91.68-.04.01-.01,0-.08,0-.11-.13-.16-.28-.22-.43-.09-.31-.13-.66-.07-.99Z"/>
    <path class="cls-2" d="M587.82,305.53l-.14.09c-.02.06-.02.09-.02.15.03.03.04.06.08.07.18.03.42-.12.55-.22.21-.16.28-.28.32-.54-.2.17-.47.48-.75.46-.02,0-.03,0-.05,0Z"/>
    <path class="cls-2" d="M587.65,305.6c.19-.21.66-.46.91-.68-.08-.17-.16-.33-.26-.49-.12-.21-.34-.57-.58-.65-.07-.02-.14-.02-.2,0-.14.07-.21.25-.23.4-.06.32-.02.67.07.99.06.15.11.31.22.43.06,0,.04,0,.08,0Z"/>
    <path class="cls-2" d="M601.88,321.46s-.04-.06-.06-.1-.05-.06-.07-.09c-.03-.03-.05-.06-.08-.08-.03-.03-.06-.05-.09-.07-.03-.02-.06-.04-.09-.06-.03-.02-.07-.04-.1-.06-.18-.09-.36-.11-.56-.11-.32.08-.59.19-.78.48-.16.25-.21.58-.13.86,0,.03.02.07.03.1.01.03.03.06.04.1.02.03.03.06.05.09.02.03.04.06.06.09.02.03.04.05.07.08.02.02.05.05.07.07.03.02.05.04.08.06.03.02.06.04.09.05.26.14.5.14.78.12.31-.09.55-.23.71-.52.14-.25.16-.53.07-.8-.01-.04-.03-.07-.04-.11-.02-.03-.03-.07-.05-.1ZM601.71,322.16c-.01.14-.06.25-.17.34-.15.12-.36.16-.55.13-.05,0-.09-.02-.14-.03-.2-.05-.37-.12-.49-.3-.11-.16-.16-.35-.12-.54.05-.22.18-.37.37-.49.1-.08.27-.1.4-.09.15.02.26.07.38.16.19.18.33.36.35.63,0,.06,0,.12-.02.19Z"/>
    <path class="cls-2" d="M600.45,322.02c-.09-.27.04-.51.15-.75-.18.12-.32.27-.37.49-.04.19,0,.38.12.54.13.18.29.24.49.3l.03-.03c-.14-.15-.36-.35-.43-.55Z"/>
    <path class="cls-2" d="M601.25,321.43l.13-.08c-.12-.09-.23-.14-.38-.16-.13-.02-.29,0-.4.09-.11.24-.24.48-.15.75.07.2.28.4.43.55l-.03.03s.09.03.14.03c.19.03.4,0,.55-.13.11-.09.16-.2.17-.34-.02-.04-.05-.08-.07-.12-.09-.21-.34-.41-.39-.61Z"/>
    <path class="cls-2" d="M601.25,321.43c.05.2.3.4.39.61.02.04.05.08.07.12.01-.06.02-.12.02-.19-.02-.27-.15-.45-.35-.63l-.13.08Z"/>
    <path class="cls-2" d="M591.64,294.14c.45-.14.83-.37,1.05-.81.15-.29.22-.66.11-.97-.07-.19-.21-.33-.39-.4-.19-.08-.36-.09-.56-.07-.4.09-.73.26-.96.62-.21.32-.32.79-.24,1.17.04.19.12.32.25.45.27.09.45.08.73.02ZM590.91,293.21c0-.06,0-.11.02-.16.06-.32.26-.57.53-.74.2-.13.47-.23.71-.17.16.05.24.13.32.27.08.3.07.57-.09.84-.11.18-.28.34-.45.46-.19.1-.46.22-.68.21-.1,0-.2-.04-.27-.12-.15-.17-.12-.39-.1-.59Z"/>
    <path class="cls-2" d="M591.27,293.92c.22,0,.48-.11.68-.21l-.05-.04c-.16.03-.36.05-.5.12-.04.06-.02.04-.09.06-.1-.12-.11-.5-.14-.66-.09.03-.17.02-.26.02-.02.2-.05.43.1.59.07.08.16.11.27.12Z"/>
    <path class="cls-2" d="M591.94,293.59c-.05-.15.09-.36.11-.52,0-.06,0-.06-.03-.11-.1,0-.18.05-.27.09-.14.06-.27.13-.41.18.02.18.02.38.06.56.14-.07.35-.09.5-.12l.05.04c.18-.12.35-.28.45-.46.16-.27.17-.54.09-.84-.05.07-.1.14-.15.22-.18.21-.16.65-.39.96Z"/>
    <path class="cls-2" d="M591.75,293.05l-.05-.03c-.17.04-.42.05-.53.17.03.16.04.54.14.66.07-.02.04,0,.09-.06-.04-.17-.04-.38-.06-.56.14-.05.27-.12.41-.18Z"/>
    <path class="cls-2" d="M592.02,292.96c.04.05.04.05.03.11-.02.15-.16.37-.11.52.24-.31.21-.75.39-.96-.23.1-.41.29-.64.39l.05.03c.09-.05.17-.1.27-.09Z"/>
    <path class="cls-2" d="M591.7,293.02c.23-.11.4-.3.64-.39.05-.07.1-.14.15-.22-.08-.15-.16-.23-.32-.27-.24-.07-.51.04-.71.17-.27.17-.46.43-.53.74-.01.05-.02.11-.02.16.09,0,.17,0,.26-.02.12-.12.37-.13.53-.17Z"/>
    <path class="cls-2" d="M605.43,290.58c.04.37.22.7.51.93.27.22.59.32.93.36.41-.02.78-.1,1.08-.41.28-.29.4-.71.38-1.11,0-.03,0-.05,0-.08s0-.05,0-.07,0-.05-.01-.07c0-.02-.01-.05-.02-.07,0-.02-.01-.05-.02-.07,0-.02-.02-.05-.02-.07,0-.02-.02-.05-.03-.07,0-.02-.02-.05-.03-.07-.01-.02-.02-.05-.03-.07s-.02-.04-.04-.07c-.01-.02-.03-.04-.04-.06-.01-.02-.03-.04-.04-.06s-.03-.04-.05-.06c-.02-.02-.03-.04-.05-.06-.02-.02-.03-.04-.05-.05-.02-.02-.04-.03-.06-.05-.24-.21-.59-.35-.91-.32-.46.05-.87.18-1.18.55-.02.02-.03.04-.04.06-.01.02-.03.04-.04.06-.01.02-.03.04-.04.06-.01.02-.02.04-.03.06s-.02.04-.03.06c-.01.02-.02.04-.03.06,0,.02-.02.04-.03.07,0,.02-.02.04-.02.07,0,.02-.01.05-.02.07,0,.02-.01.05-.02.07s0,.05-.01.07c0,.02,0,.05,0,.07,0,.02,0,.05,0,.07,0,.02,0,.05,0,.07s0,.05,0,.07c0,.02,0,.05,0,.07ZM605.79,289.96c.09-.18.23-.34.42-.4.21-.07.43-.03.62.08.24.13.46.36.54.62.06.19.02.36-.08.53-.08.14-.21.22-.35.3.22.04.34-.06.54-.13.15-.22.19-.44.14-.69-.07-.34-.33-.67-.64-.84-.09-.05-.2-.08-.31-.1.01-.05,0-.03.05-.06.12-.06.25-.03.36.01.35.13.65.39.81.73.12.26.1.6,0,.86-.1.27-.32.47-.58.57-.33.14-.68.12-1-.02-.26-.11-.47-.31-.58-.58-.11-.28-.08-.61.05-.88Z"/>
    <path class="cls-2" d="M606.32,291.41c.32.14.68.16,1,.02.26-.11.48-.31.58-.57.1-.26.11-.6,0-.86-.15-.34-.46-.6-.81-.73-.12-.04-.25-.07-.36-.01-.05.02-.04.01-.05.06.11.02.22.05.31.1.3.17.56.51.64.84.06.26,0,.48-.14.69-.12.17-.28.29-.49.33-.21.03-.39-.02-.57-.1.18-.02.35-.04.53-.1.14-.08.26-.16.35-.3.1-.17.14-.34.08-.53-.08-.27-.3-.49-.54-.62-.19-.1-.41-.15-.62-.08-.19.06-.33.22-.42.4-.13.27-.16.6-.05.88.1.27.32.46.58.58Z"/>
    <path class="cls-2" d="M606.99,291.28c.22-.03.37-.15.49-.33-.2.07-.32.17-.54.13-.18.05-.35.08-.53.1.19.08.37.13.57.1Z"/>
    <path class="cls-2" d="M592.08,288.72c.14-.06.26-.12.39-.2.5-.36.99-.72,1.55-.99.34-.16.69-.3,1.05-.43.23-.08.51-.14.73-.26.09-.05.15-.11.2-.2.2-.32.29-.73.42-1.08.17-.42.39-.84.62-1.23.21-.36,1-1.31,1.06-1.63.02-.11,0-.21-.07-.3-.15-.2-.45-.28-.68-.31-.16-.02-.33-.02-.49,0-1.48.12-2.9.91-3.85,2.04-.72.85-1.74,2.69-1.62,3.84.02.22.13.42.3.56.11.09.25.14.39.19ZM597.36,282.59c.05-.08.03-.1,0-.19.18.06.35.12.52.18-.42.72-.98,1.34-1.37,2.09-.18.34-.69,1.7-.81,1.84,0,0-.02.02-.03.03-.19.16-.92.34-1.21.45-.3.12-.61.25-.89.4-.5.27-1.08.86-1.47,1.03-.1-.01-.16-.08-.24-.14.01-.08.03-.15.06-.22.24-.59,1.07-1.07,1.62-1.32.71-.32,1.21-.49,1.96-.2l.05-.02c-.03-.19-.34-.16-.4-.29.05-.04.1-.08.13-.14.12-.21.19-.49.28-.72.14-.37.3-.75.5-1.09.2-.34.44-.69.7-.99.19-.22.46-.46.59-.71ZM593.14,284.48c.92-1.12,2.24-1.92,3.69-2.06.1,0,.23-.03.31.02,0,.07-.01.09-.06.15-.14.16-.33.28-.48.44-.22.22-.41.53-.57.8-.15.25-.29.51-.41.77-.14.3-.34,1.14-.54,1.32-.15.14-.52.17-.73.23-.95.27-1.9.75-2.52,1.53l-.16.24c.11-1.24.69-2.48,1.47-3.43Z"/>
    <path class="cls-2" d="M596.07,284.29c-.2.34-.36.72-.5,1.09-.08.23-.16.51-.28.72-.03.06-.08.1-.13.14.06.13.37.09.4.29l-.05.02c-.76-.29-1.25-.12-1.96.2-.56.25-1.38.72-1.62,1.32-.03.07-.05.15-.06.22.08.06.13.13.24.14.39-.18.97-.77,1.47-1.03.29-.15.59-.29.89-.4.28-.11,1.02-.29,1.21-.45,0,0,.02-.02.03-.03.13-.14.64-1.5.81-1.84.39-.75.96-1.36,1.37-2.09-.17-.06-.35-.13-.52-.18.03.09.04.1,0,.19-.14.25-.41.49-.59.71-.25.3-.5.65-.7.99Z"/>
    <path class="cls-2" d="M594.35,286.14c.2-.06.57-.08.73-.23.2-.18.4-1.02.54-1.32.12-.26.26-.52.41-.77.16-.27.36-.57.57-.8.15-.15.34-.28.48-.44.05-.06.06-.07.06-.15-.08-.06-.22-.03-.31-.02-1.45.14-2.77.95-3.69,2.06-.78.95-1.36,2.19-1.47,3.43l.16-.24c.63-.78,1.57-1.26,2.52-1.53ZM592.44,286.38c.25-.65.61-1.34,1.18-1.77h.03s0,.05,0,.05c-.54.66-.9,1.36-1.28,2.11h-.04s0-.03,0-.05c0-.09.09-.26.12-.35Z"/>
    <path class="cls-2" d="M592.36,286.77c.38-.75.74-1.46,1.28-2.11v-.04s-.03-.01-.03-.01c-.57.43-.92,1.12-1.18,1.77-.03.08-.12.26-.12.35,0,.02,0,.03,0,.05h.04Z"/>
    <path class="cls-2" d="M596.96,295.25c-.74.05-2.36.34-2.86.91-.06.07-.11.17-.1.26.01.18.2.3.33.41.84.71,1.7,1.54,2.26,2.5.24.41.42.95.72,1.31.15.06.32-.04.46-.1.3-.13.58-.29.88-.42.61-.24,1.22-.47,1.86-.6.33-.07.79-.03,1.08-.16.14-.06.24-.27.3-.41.08-.17.14-.35.19-.53-.49-1.19-1.51-2.24-2.7-2.73-.75-.31-1.61-.49-2.42-.44ZM601.59,299.04c-1.29-.03-2.46.37-3.58.98l-.46.27c-.06-.14-.11-.28-.16-.42,1.19-.68,2.29-1.17,3.66-1.32.25-.02.51-.02.76-.03-.06.19-.13.35-.23.52ZM601.12,297.6c.18.22.35.46.55.67-1.58-.02-3.01.48-4.29,1.4-.16-.25-.32-.55-.52-.77l-.06-.02c-.13-.19-.3-.33-.45-.51-.39-.46-.76-.96-1.21-1.36-.2-.18-.66-.4-.74-.66.04-.08.05-.07.13-.11l.06.05c1.52-.64,3.04-.83,4.6-.19.79.32,1.38.85,1.92,1.5Z"/>
    <path class="cls-2" d="M595.13,296.8c-.17-.16-.36-.29-.53-.44v-.07s-.06-.05-.06-.05c-.08.04-.09.03-.13.11.07.25.54.48.74.66.45.4.83.9,1.21,1.36.15.18.31.32.45.51l.06.02c-.39-.76-1.1-1.52-1.73-2.1Z"/>
    <path class="cls-2" d="M597.39,299.86c.05.14.1.28.16.42l.46-.27c1.12-.6,2.29-1.01,3.58-.98.1-.17.16-.34.23-.52-.25,0-.51,0-.76.03-1.38.15-2.48.64-3.66,1.32Z"/>
    <path class="cls-2" d="M594.6,296.29v.07c.17.16.36.29.53.44.63.58,1.34,1.34,1.73,2.1.2.22.36.52.52.77,1.27-.92,2.71-1.42,4.29-1.4-.19-.21-.36-.45-.55-.67-.54-.65-1.13-1.18-1.92-1.5-1.57-.64-3.08-.45-4.6.19Z"/>
    <path class="cls-2" d="M601.08,308.45c-.12.02-.22.02-.32.1-.08.11-.07,1.67-.1,1.99-.08,1.11-.42,2.31-.79,3.35-.17.47-.45.98-.51,1.48.22.5.74.91,1.14,1.25.8-.1,1.52-.46,2.19-.9.96-.73,1.64-1.47,2.16-2.57.16-.33.32-.7.37-1.07.08-.57-.25-1.07-.59-1.5-.76-.96-1.93-1.97-3.2-2.11-.12-.01-.25-.02-.37-.02ZM604.22,310.76c.21.14.33.27.44.49,0,.03,0,.07-.02.1.2.36.3.65.18,1.07-.4,1.43-1.66,2.75-2.93,3.45-.39.21-.82.44-1.26.51-.16-.2-.43-.47-.49-.72-.04-.12-.19-.18-.26-.29l.03-.05h.04c.21-.09.46-.12.69-.21.59-.22,1.18-.64,1.65-1.05.82-.72,1.61-1.85,1.68-2.98-.06.14-.09.29-.14.44-.49,1.45-1.77,2.74-3.13,3.4-.18.09-.59.31-.79.25-.03-.09-.01-.15.02-.24.15-.46.36-.9.52-1.36.14-.39.22-.81.31-1.21.28-1.24.36-2.42.24-3.69,1.05.1,2.02.68,2.73,1.45.18.2.33.42.5.62Z"/>
    <path class="cls-2" d="M601.79,315.25c-.39.21-1.14.57-1.57.44-.02,0-.05-.02-.07-.02.05.25.32.52.49.72.44-.07.87-.3,1.26-.51,1.27-.7,2.53-2.02,2.93-3.45.12-.42.02-.71-.18-1.07l-.04.25c-.46,1.5-1.39,2.9-2.8,3.65Z"/>
    <path class="cls-2" d="M600.75,312.37c-.09.4-.18.82-.31,1.21-.16.46-.37.9-.52,1.36-.03.09-.04.14-.02.24.2.07.61-.16.79-.25,1.36-.66,2.64-1.95,3.13-3.4.05-.15.08-.3.14-.44-.07,1.12-.86,2.25-1.68,2.98-.47.41-1.06.83-1.65,1.05-.22.08-.47.11-.69.2.07.06.15.11.23.14.41.13,1.07-.22,1.42-.42,1.4-.79,2.37-2.16,2.78-3.69.02-.25-.06-.37-.17-.59-.17-.2-.32-.42-.5-.62-.71-.78-1.67-1.36-2.73-1.45.12,1.27.04,2.45-.24,3.69Z"/>
    <path class="cls-2" d="M601.6,315.04c-.35.2-1.01.54-1.42.42-.09-.03-.16-.08-.23-.14h-.04s-.03.05-.03.05c.07.11.22.17.26.29.02,0,.05.02.07.02.43.13,1.18-.23,1.57-.44,1.41-.75,2.34-2.15,2.8-3.65l.04-.25s.02-.07.02-.1c-.11-.22-.23-.35-.44-.49.11.22.18.34.17.59-.41,1.53-1.39,2.9-2.78,3.69Z"/>
    <path class="cls-2" d="M581.25,290.63h.04c.34.07.7.08,1.04.13.88.11,1.71.35,2.5.75.46.23.89.49,1.28.82.24.21.46.45.73.62.94-.55,1.72-2.11,1.98-3.13.36-1.39.18-2.99-.57-4.22-.27-.44-.78-1.06-1.32-1.16-.05,0-.09-.01-.14,0-2.23.58-4.27,2.92-5.41,4.85-.19.33-.37.68-.26,1.07.03.1.08.19.12.28ZM581.49,289.91c.11,0,.21-.01.32-.04l-.06-.04s-.08.03-.13.04c0-.02,0-.03,0-.05.08-.21.73-.1,1-.18-.29-.05-.6-.02-.9,0,.91-1.52,1.98-2.79,3.4-3.87.38-.29.79-.52,1.16-.81l.02-.02-.02-.02c.05-.06.13-.06.21-.08.12-.07.28-.18.43-.15.4.08.87.88,1.04,1.22.02.04.04.08.06.12s.04.08.06.12.04.08.05.12c.02.04.03.08.05.13.02.04.03.08.05.13.02.04.03.08.04.13s.03.09.04.13c.01.04.03.09.04.13s.02.09.03.13c.01.04.02.09.03.13,0,.04.02.09.03.13,0,.04.02.09.02.13,0,.04.01.09.02.13,0,.04.01.09.02.13,0,.04.01.09.02.13,0,.04,0,.09.01.13,0,.04,0,.09,0,.13,0,.04,0,.09,0,.14,0,.04,0,.09,0,.13s0,.09,0,.14c0,.05,0,.09,0,.13,0,.05,0,.09,0,.13,0,.04,0,.09-.01.13,0,.04,0,.09-.01.13,0,.04-.01.09-.02.13,0,.04-.01.09-.02.13,0,.04-.02.09-.02.13,0,.04-.02.09-.03.13,0,.04-.02.09-.03.13-.01.04-.02.09-.03.13s-.02.09-.04.13-.03.09-.04.13c-.03.1-.07.2-.11.3-.04.1-.08.19-.12.29-.04.1-.09.19-.14.28-.05.09-.1.18-.15.27s-.11.18-.17.27c-.06.09-.12.17-.18.26-.06.08-.13.17-.2.25-.07.08-.14.16-.21.23-.05-.16-.09-.33-.15-.49-.03.13-.07.26-.13.38v.21s-.05,0-.05,0c-.76-.75-1.79-1.29-2.8-1.6-.32-.1-.64-.18-.97-.24-.33-.06-.66-.11-.99-.13-.13,0-.41,0-.5-.1,0-.13.05-.26.09-.38Z"/>
    <path class="cls-2" d="M582.88,290.52c.33.06.65.14.97.24,1.01.31,2.05.85,2.8,1.6h.03s.01-.22.01-.22c-.05-.31-.16-.5-.39-.71-1.16-1.14-2.93-1.58-4.51-1.56-.1.03-.21.04-.32.04-.04.13-.09.25-.09.38.09.1.36.09.5.1.33.03.66.07.99.13Z"/>
    <path class="cls-2" d="M587.93,288.78c0,.11-.02.22-.03.33-.01.11-.03.22-.05.33-.02.11-.05.22-.08.32-.03.11-.06.21-.1.32-.04.1-.07.21-.12.31-.04.1-.09.2-.14.3-.05.1-.1.2-.15.29-.07.12-.44.61-.45.69,0,.01,0,.08.01.09.06.16.1.33.15.49.07-.08.14-.15.21-.23.07-.08.13-.16.2-.25.06-.08.12-.17.18-.26.06-.09.12-.18.17-.27s.11-.18.15-.27c.05-.09.1-.19.14-.28.04-.1.09-.19.12-.29.04-.1.07-.2.11-.3.01-.04.03-.09.04-.13s.03-.09.04-.13.02-.09.03-.13c.01-.04.02-.09.03-.13,0-.04.02-.09.03-.13,0-.04.02-.09.02-.13,0-.04.02-.09.02-.13,0-.04.01-.09.02-.13,0-.04.01-.09.01-.13,0-.04,0-.09.01-.13,0-.04,0-.09,0-.13,0-.04,0-.09,0-.13,0-.04,0-.09,0-.14s0-.09,0-.13c0-.05,0-.09,0-.14,0-.04,0-.09,0-.13,0-.04,0-.09-.01-.13,0-.04,0-.09-.02-.13,0-.04-.01-.09-.02-.13,0-.04-.01-.09-.02-.13,0-.04-.02-.09-.02-.13,0-.04-.02-.09-.03-.13,0-.04-.02-.09-.03-.13-.01-.04-.02-.09-.03-.13s-.02-.09-.04-.13c-.01-.04-.03-.09-.04-.13s-.03-.09-.04-.13c-.02-.04-.03-.08-.05-.13-.02-.04-.03-.08-.05-.13-.02-.04-.03-.08-.05-.12s-.04-.08-.06-.12-.04-.08-.06-.12c-.17-.34-.64-1.13-1.04-1.22-.15-.03-.31.08-.43.15.97.97,1.45,2.24,1.45,3.61,0,.11,0,.22-.01.33Z"/>
    <path class="cls-2" d="M586.74,291.55c.04-.06.07-.11.11-.17.02-.04.05-.08.07-.12.02-.04.05-.08.07-.12.02-.04.04-.08.06-.13.02-.04.04-.08.06-.13.02-.04.04-.09.06-.13.02-.04.04-.09.05-.13.02-.04.03-.09.05-.13.02-.04.03-.09.05-.13s.03-.09.04-.13c.01-.04.03-.09.04-.13s.03-.09.04-.14c.01-.05.02-.09.03-.14s.02-.09.03-.14c0-.05.02-.09.03-.14,0-.05.02-.09.02-.14,0-.05.01-.09.02-.14,0-.05.01-.09.02-.14s.01-.09.01-.14c0-.05,0-.09.01-.14s0-.09,0-.14c0-.05,0-.09,0-.14,0-.05,0-.09,0-.14,0-.05,0-.09,0-.14,0-.05,0-.09,0-.14s0-.09,0-.14c0-.05,0-.09-.01-.14,0-.05-.01-.09-.02-.14s-.01-.09-.02-.14c0-.05-.02-.09-.02-.14,0-.05-.02-.09-.03-.14,0-.05-.02-.09-.03-.14-.01-.05-.02-.09-.03-.14-.15-.54-.66-1.81-1.15-2.1l-.02.02c-.37.29-.79.52-1.16.81-1.42,1.07-2.48,2.34-3.4,3.87.3-.03.61-.06.9,0,.03,0,.05,0,.08,0,1.5.11,3.05.77,4.04,1.92ZM586.64,290.46c.34-1.23.56-2.16.2-3.43.08.09.12.2.16.31.39,1.06.07,2.35-.39,3.34l-.02.03s.03-.18.05-.24Z"/>
    <path class="cls-2" d="M587.01,287.34c-.04-.11-.08-.22-.16-.31.36,1.27.14,2.2-.2,3.43-.02.06-.08.19-.05.24l.02-.03c.46-.99.79-2.28.39-3.34Z"/>
    <path class="cls-2" d="M586.7,292.14c.07-.12.11-.25.13-.38,0-.01-.02-.08-.01-.09.02-.08.39-.57.45-.69.05-.1.11-.19.15-.29.05-.1.09-.2.14-.3.04-.1.08-.21.12-.31.04-.1.07-.21.1-.32.03-.11.05-.21.08-.32.02-.11.04-.22.05-.33.01-.11.03-.22.03-.33s.01-.22.01-.33c0-1.37-.48-2.64-1.45-3.61-.07.02-.15.03-.21.08l.02.02c.49.29,1.01,1.56,1.15,2.1.01.05.02.09.03.14.01.05.02.09.03.14,0,.05.02.09.03.14,0,.05.02.09.02.14,0,.05.01.09.02.14s.01.09.02.14c0,.05,0,.09.01.14,0,.05,0,.09,0,.14s0,.09,0,.14c0,.05,0,.09,0,.14,0,.05,0,.09,0,.14,0,.05,0,.09,0,.14,0,.05,0,.09,0,.14s0,.09-.01.14c0,.05,0,.09-.01.14s-.01.09-.02.14c0,.05-.01.09-.02.14,0,.05-.02.09-.02.14,0,.05-.02.09-.03.14-.01.05-.02.09-.03.14s-.02.09-.03.14c-.01.05-.02.09-.04.14s-.03.09-.04.13c-.01.04-.03.09-.04.13s-.03.09-.05.13c-.02.04-.03.09-.05.13-.02.04-.04.09-.05.13-.02.04-.04.09-.06.13-.02.04-.04.08-.06.13-.02.04-.04.08-.06.13-.02.04-.04.08-.07.12-.02.04-.05.08-.07.12-.03.06-.07.12-.11.17-.99-1.16-2.54-1.81-4.04-1.92-.03,0-.05,0-.08,0-.27.08-.92-.03-1,.18,0,.01,0,.03,0,.05.05,0,.08-.02.13-.04l.06.04c1.58-.02,3.35.42,4.51,1.56.22.22.34.41.39.71Z"/>
    <path class="cls-2" d="M588.98,331.45c.16-.1.31-.21.46-.33.15-.12.29-.24.44-.36.14-.13.28-.26.41-.39.06-.07.12-.14.18-.21-.54.49-1.1.97-1.68,1.42.07-.04.13-.08.2-.12Z"/>
    <path class="cls-2" d="M592.66,327.88c.67-.63,1.18-1.3,1.64-2.09.11-.19.32-.5.33-.72,0,0,0,0,0,0-.63,1.05-1.33,2.03-2.1,2.94.04-.04.09-.08.13-.12Z"/>
    <path class="cls-2" d="M586.4,294.5c-.78-.55-1.69-.91-2.62-1.09-.47-.09-.95-.16-1.41-.31-.39-.13-.77-.31-1.15-.47-.72-.3-1.5-.52-2.28-.6-.39-.04-.8-.05-1.2-.02-.35.01-.69.06-1.04.1,3.67.53,7.09,1.38,10.07,2.66-.13-.1-.27-.19-.38-.28Z"/>
    <g>
      <path class="cls-1" d="M562.43,296.7c.5-.34.92-.77,1.36-1.17-.44.41-.87.83-1.36,1.17-.55.37-1.14.66-1.7.99-.29.17-.57.37-.83.58.27-.21.54-.41.83-.58.57-.33,1.16-.62,1.7-.99Z"/>
      <path class="cls-1" d="M569.54,334.34c.48.06.96.13,1.43.24.94.23,1.64.54,2.45.71-.81-.17-1.52-.48-2.45-.71-.47-.11-.95-.18-1.43-.24Z"/>
      <path class="cls-1" d="M568.58,293.42c-.13.05-.26.11-.4.15-.04.01-.07.02-.11.03.04-.01.07-.02.11-.03.14-.04.27-.1.4-.15Z"/>
      <path class="cls-1" d="M573.9,292.12c-.68-.06-1.34-.09-2.17.08.82-.17,1.48-.14,2.17-.08Z"/>
      <path class="cls-1" d="M562.61,331.37c-.4-.26-.82-.47-1.23-.7,7-6.11,8.07-15.47,8.07-23.36,0-5.64-2-9.46-6.73-9.46-1.27,0-2.38.59-3.35,1.59-.18-.07-.37-.12-.56-.18,0,0,0-.01.01-.02-.9.98-1.38,2.14-2.09,3.24-.79,1.23-1.54,1.98-2.16,3.38-.43.97-.51,1.96-.77,2.97-.11.43-.28.85-.42,1.27-.33.93-.53,1.87-.49,2.86.03.71.2,1.41.27,2.12.13,1.23.08,2.45.43,3.65.03.09.07.18.1.27.28.82.67,1.59.95,2.41.42,1.25.55,2.08,1.29,3.24.32.51.69,1.01,1.1,1.46.38.42.79.81,1.15,1.26.71.87,1.29,1.8,2.13,2.57.33.3.7.53,1.07.73.41.23.83.43,1.23.7.72.48,1.35,1.06,2.1,1.51,1.17.71,2.39,1.07,3.7,1.29-1.31-.23-2.53-.58-3.7-1.29-.75-.45-1.38-1.04-2.1-1.51Z"/>
      <path class="cls-1" d="M584.31,333.51c.38-.2.76-.41,1.16-.58.82-.35,1.67-.57,2.48-.93-.81.36-1.66.58-2.48.93-.4.17-.78.37-1.16.58Z"/>
      <path class="cls-1" d="M574.89,335.42s-.03,0-.05,0c.02,0,.03,0,.05,0,.64-.02,1.26-.09,1.89-.2.23-.04.46-.08.7-.12-.23.04-.47.08-.7.12-.63.1-1.25.18-1.89.2Z"/>
      <path class="cls-1" d="M578.42,335c.98-.06,1.96-.02,2.92-.25.46-.11.93-.28,1.38-.47-.46.19-.93.36-1.38.47-.96.23-1.94.19-2.92.25Z"/>
      <path class="cls-2" d="M577.99,363.16c-11.46,0-23.65-7.09-25.11-22.74,12.22-.23,26.7-1.79,35.89-8.86-.02.01-.04.02-.06.03-.08.05-.15.1-.23.14-.18.1-.36.18-.54.26-.81.36-1.66.58-2.48.93-.4.17-.78.37-1.16.58-.18.1-.35.19-.53.28-.33.17-.69.34-1.05.49-.46.19-.93.36-1.38.47-.96.23-1.94.19-2.92.25-.13,0-.27.01-.4.02-.18.02-.36.05-.54.08-.23.04-.47.08-.7.12-.63.1-1.25.18-1.89.2-.02,0-.03,0-.05,0,0,0,0,0,0,0h0c-.2,0-.38,0-.56,0-.31-.02-.59-.06-.86-.12-.81-.17-1.52-.48-2.45-.71-.47-.11-.95-.18-1.43-.24-.17-.02-.35-.05-.52-.07-.21-.03-.41-.07-.61-.1-1.31-.22-2.53-.58-3.7-1.29-.75-.45-1.38-1.04-2.1-1.51-.4-.26-.82-.47-1.23-.7-.37-.21-.74-.43-1.07-.73-.83-.77-1.42-1.69-2.13-2.57-.36-.44-.77-.83-1.15-1.26-.4-.45-.77-.95-1.1-1.46-.73-1.17-.87-1.99-1.29-3.24-.28-.82-.67-1.59-.95-2.41-.03-.09-.08-.18-.1-.27-.35-1.2-.3-2.42-.43-3.65-.08-.71-.24-1.41-.27-2.12-.04-.99.16-1.93.49-2.86.15-.42.31-.84.42-1.27.26-1.01.34-2,.77-2.97.62-1.4,1.37-2.15,2.16-3.38.7-1.1,1.18-2.27,2.09-3.24h0s0,0,0,0c.14-.15.3-.28.45-.42.2-.19.41-.38.63-.55.27-.21.54-.41.83-.58.57-.33,1.16-.62,1.7-.99.5-.34.92-.77,1.36-1.17.16-.15.33-.3.5-.43.16-.13.32-.25.49-.36,1.03-.64,2.16-.8,3.29-1.14.04-.01.07-.02.11-.03.14-.04.27-.1.4-.15.93-.35,1.8-.86,2.76-1.12.14-.04.26-.06.39-.09.82-.17,1.48-.14,2.17-.08.5.04,1.01.09,1.61.09.4,0,.8-.05,1.2-.1h0c-4.14-.6-8.59-.81-13.09-.81-22.74,0-41.11,22.56-41.11,50.39s15.28,50.21,38.02,50.21,37.47-13.46,37.84-40.93c-3.09,8.01-11.64,12.19-20.37,12.19Z"/>
      <path class="cls-2" d="M575.51,292.21c-.6,0-1.11-.05-1.61-.09-.68-.06-1.34-.09-2.17.08-.13.03-.25.05-.39.09-.96.26-1.83.77-2.76,1.12-.13.05-.26.11-.4.15-.04.01-.07.02-.11.03-1.13.34-2.26.5-3.29,1.14-.17.11-.33.23-.49.36-.17.14-.34.28-.5.43-.44.41-.86.83-1.36,1.17-.55.37-1.14.66-1.7.99-.29.17-.57.37-.83.58-.22.17-.43.36-.63.55-.15.14-.31.27-.45.42h0s0,0,0,0c0,0,0,.01-.01.02.19.06.38.11.56.18.97-1,2.08-1.59,3.35-1.59,4.73,0,6.73,3.82,6.73,9.46,0,7.89-1.07,17.25-8.07,23.36.41.23.83.43,1.23.7.72.48,1.35,1.06,2.1,1.51,1.17.71,2.39,1.07,3.7,1.29.2.04.4.08.61.1.17.02.35.05.52.07.48.06.96.13,1.43.24.94.23,1.64.54,2.45.71.27.06.56.1.86.12.18.01.36.01.56,0h0s0,0,0,0c.02,0,.03,0,.05,0,.64-.02,1.26-.09,1.89-.2.23-.04.46-.08.7-.12.18-.03.36-.06.54-.08.13-.01.27-.02.4-.02.98-.06,1.96-.02,2.92-.25.46-.11.93-.28,1.38-.47.36-.15.72-.32,1.05-.49.18-.09.36-.19.53-.28.38-.2.76-.41,1.16-.58.82-.35,1.67-.57,2.48-.93.18-.08.37-.16.54-.26.08-.04.15-.09.23-.14.02-.01.04-.02.06-.03.58-.45,1.15-.92,1.68-1.42.34-.38.65-.79,1-1.15.34-.35.71-.66,1.06-.99.77-.91,1.48-1.89,2.1-2.94,0-.01,0-.02,0-.03l-.05-.02c-.11.04-.17.11-.24.19-.2-.23-.39-.46-.61-.67-.33-.32-.79-.6-1.01-1.01-.5-.93-.14-2.15-.87-3-.5-.58-1.37-.59-1.96-1.04-.59-.44-.74-1.2-1.23-1.72-.53-.56-1.3-.8-1.75-1.46-1.19-1.76-.71-3.99-1.75-5.81-.82-1.44-2.83-2.06-3.16-3.81-.01-.08-.02-.16-.03-.24,0-.08,0-.16,0-.24.08-.96.87-2.85,1.63-3.46.2-.16.45-.28.68-.41.54-.32.8-.88.88-1.49.08-.59.04-1.21.19-1.79.18-.74.67-1.39.95-2.1.21-.52.21-1.03.57-1.48.12-.15.27-.31.13-.5-.05-.07-.13-.13-.21-.2-2.98-1.28-6.4-2.13-10.07-2.66h0c-.4.05-.8.09-1.2.1Z"/>
    </g>
    <path class="cls-2" d="M590.08,321.72s.08,0,.12-.01c.18,0,.33.04.46.17.07.07.11.16.11.26,0,.16-.08.26-.19.37-.04.01-.09.02-.13.03-.14.01-.29-.05-.39-.14-.09-.08-.15-.2-.15-.32,0-.15.06-.26.17-.36Z"/>
    <path class="cls-2" d="M589.16,320.69c.1,0,.17,0,.25.06.03.1.01.12-.03.21-.09,0-.12-.04-.19-.09-.04-.09-.04-.09-.03-.19Z"/>
    <path class="cls-2" d="M589.38,320.96c.04-.1.05-.11.03-.21-.08-.06-.15-.06-.25-.06-.02.09-.01.1.03.19.07.06.1.08.19.09Z"/>
    <path class="cls-2" d="M590.46,322.54s.09-.02.13-.03c.11-.11.19-.21.19-.37,0-.1-.04-.19-.11-.26-.13-.13-.28-.17-.46-.17-.04,0-.08,0-.12.01-.11.11-.17.21-.17.36,0,.13.06.24.15.32.1.09.26.15.39.14Z"/>
  </g>
  <g>
    <path class="cls-2" d="M342.57,532.85c0,3.17.03,4.39.27,5.87h-7.25c.24-1.48.31-2.83.31-5.77v-17.48c0-2.23-.07-3.34-.27-4.93,1.38.07,2.33.1,4.93.1h9.75c2.97,0,4.08-.03,5.67-.23v6.41c-1.48-.17-2.8-.24-5.63-.24h-7.76v5.53h6.34c2.63,0,3.91-.07,5.4-.24v6.24c-1.48-.17-2.83-.24-5.4-.24h-6.34v4.96Z"/>
    <path class="cls-2" d="M385.18,524.55c0,8.91-5.43,14.81-13.63,14.81s-13.6-5.77-13.6-14.71,5.33-14.61,13.63-14.61,13.6,5.67,13.6,14.51ZM378.16,524.62c0-5.47-2.5-8.77-6.58-8.77s-6.64,3.34-6.64,8.77,2.53,8.91,6.64,8.91,6.58-3.37,6.58-8.91Z"/>
    <path class="cls-2" d="M414.94,524.55c0,8.91-5.43,14.81-13.63,14.81s-13.59-5.77-13.59-14.71,5.33-14.61,13.63-14.61,13.6,5.67,13.6,14.51ZM407.92,524.62c0-5.47-2.49-8.77-6.58-8.77s-6.64,3.34-6.64,8.77,2.53,8.91,6.64,8.91,6.58-3.37,6.58-8.91Z"/>
    <path class="cls-2" d="M418.63,515.51c0-2.29-.07-3.41-.31-4.96,1.35.07,2.19.1,4.99.1h7.05c4.15,0,7.49,1.15,9.75,3.34,2.46,2.43,3.71,5.97,3.71,10.46s-1.35,8.33-3.91,10.89c-2.26,2.23-5.47,3.37-9.48,3.37h-7.12c-2.59,0-3.54.03-4.96.1.2-1.48.27-2.6.27-4.93v-18.39ZM429.83,532.82c2.19,0,3.75-.57,4.96-1.79,1.38-1.42,2.13-3.68,2.13-6.48s-.64-4.96-1.96-6.27c-1.18-1.18-2.8-1.72-5.23-1.72h-4.41v16.26h4.52Z"/>
    <path class="cls-2" d="M453.38,529.58c.14,1.22.37,1.82.88,2.5.81,1.01,2.22,1.59,3.95,1.59,2.59,0,4.15-1.14,4.15-3.04,0-1.05-.54-1.96-1.42-2.36-.71-.34-1.55-.57-5.06-1.38-3.1-.68-4.18-1.08-5.43-1.96-2.13-1.49-3.27-3.74-3.27-6.48,0-5.2,4.18-8.47,10.83-8.47,4.28,0,7.56,1.32,9.38,3.85.85,1.11,1.25,2.13,1.69,4.05l-7.16.77c-.4-2.19-1.62-3.1-4.18-3.1-2.06,0-3.57,1.11-3.57,2.67,0,.94.5,1.65,1.58,2.16q.68.3,4.66,1.11c2.56.54,4.18,1.11,5.47,1.92,2.43,1.52,3.64,3.78,3.64,6.88,0,2.53-.81,4.69-2.36,6.21-1.96,1.89-4.93,2.87-8.87,2.87-2.87,0-5.7-.61-7.52-1.65-1.69-.94-2.94-2.4-3.65-4.32-.34-.81-.5-1.59-.74-3.14l7.01-.68Z"/>
  </g>
  <g>
    <path class="cls-2" d="M623.62,272.5c0,.96.03,1.67.12,2.42h-3.55c.1-.75.14-1.41.14-2.42v-8.1h-1.9c-1.02,0-1.29.02-2.43.11v-3.07c.53.07,1.41.11,2.4.11h7.04c1.12,0,1.76-.03,2.51-.11v3.07c-.72-.08-1.36-.11-2.51-.11h-1.82v8.1Z"/>
    <path class="cls-2" d="M635.01,274.93c-.08-.56-.26-1.16-.69-2.38l-1.48-4.28c-.01-.08-.5-1.58-.54-1.7q-.18-.58-.26-.81c.09,1.01.16,2.33.16,3.19v3.49c0,1.11.03,1.81.14,2.49h-3.18c.1-.72.14-1.4.14-2.49v-8.37c0-.97-.05-1.82-.14-2.51h4.25c.11.69.24,1.21.61,2.27l2.41,6.93,2.4-6.93c.37-1.08.5-1.59.6-2.27h4.25c-.09.77-.12,1.43-.12,2.51v8.37c0,1.22.03,1.85.12,2.49h-3.17c.1-.74.14-1.35.14-2.49v-3.5c0-.39.05-1.59.08-2.09q.05-.85.06-1.09c-.35,1.25-.51,1.83-.72,2.41l-1.55,4.4c-.41,1.14-.62,1.85-.7,2.36h-2.79Z"/>
  </g>
  <g>
    <path class="cls-2" d="M482.48,523.67s0,.09,0,.14c0,1.42-.15,2.8-.22,4.2h161.05v-4.34h-160.84Z"/>
    <path class="cls-2" d="M319.85,523.81s0-.09,0-.14h-163.09v4.34h163.31c-.08-1.4-.22-2.79-.22-4.2Z"/>
  </g>
</svg>